<?xml version="1.0" encoding="utf-8"?>
<!-- Generator: Adobe Illustrator 16.0.0, SVG Export Plug-In . SVG Version: 6.00 Build 0)  -->
<!DOCTYPE svg PUBLIC "-//W3C//DTD SVG 1.1 Basic//EN" "http://www.w3.org/Graphics/SVG/1.1/DTD/svg11-basic.dtd">
<svg version="1.1" baseProfile="basic" id="Layer_1"
	 xmlns="http://www.w3.org/2000/svg" xmlns:xlink="http://www.w3.org/1999/xlink" x="0px" y="0px" width="50px" height="50px"
	 viewBox="0 0 50 50" xml:space="preserve">
<path fill="#404040" d="M-314.213,33.072l-5.448-4.634c-0.563-0.507-1.166-0.739-1.652-0.717c1.286-1.507,2.063-3.461,2.063-5.597
	c0-4.763-3.861-8.625-8.625-8.625c-4.763,0-8.625,3.862-8.625,8.625c0,4.764,3.862,8.625,8.625,8.625
	c2.136,0,4.091-0.777,5.597-2.063c-0.022,0.486,0.21,1.088,0.718,1.652l4.634,5.448c0.793,0.881,2.089,0.956,2.88,0.165
	S-313.331,33.866-314.213,33.072 M-327.875,27.875c-3.175,0-5.75-2.575-5.75-5.75c0-3.175,2.575-5.75,5.75-5.75
	c3.176,0,5.75,2.575,5.75,5.75C-322.125,25.3-324.7,27.875-327.875,27.875"/>
<path fill="#404040" d="M-245.473,28.467c0.114-0.098,0.205-0.233,0.256-0.415c0.729-2.585,1.456-5.171,2.184-7.757
	c0.087-0.311,0.006-0.569-0.157-0.752c-0.136-0.193-0.357-0.326-0.665-0.326c-5.546,0-11.094,0-16.641,0
	c-0.425-1.527-0.85-3.054-1.275-4.581c-0.057-0.202-0.163-0.349-0.294-0.447c-0.133-0.109-0.308-0.179-0.527-0.179
	c-1.195,0-2.392,0-3.586,0c-1.099,0-1.099,1.704,0,1.704c0.979,0,1.959,0,2.938,0c1.414,5.077,2.828,10.153,4.242,15.23
	c-0.936,0.402-1.593,1.333-1.593,2.415c0,1.45,1.18,2.63,2.63,2.63s2.63-1.18,2.63-2.63c0-0.327-0.063-0.64-0.173-0.928
	c1.766,0,3.53,0,5.296,0c-0.11,0.288-0.173,0.601-0.173,0.928c0,1.45,1.181,2.63,2.63,2.63c1.45,0,2.63-1.18,2.63-2.63
	c0-1.419-1.131-2.576-2.538-2.625c-0.037-0.005-0.076-0.007-0.117-0.007c-3.171,0-6.341,0-9.513,0
	c-0.189-0.684-0.38-1.367-0.57-2.05c3.94,0,7.881,0,11.821,0C-245.796,28.678-245.607,28.595-245.473,28.467z M-247.751,32.434
	c0.511,0,0.926,0.415,0.926,0.926s-0.415,0.926-0.926,0.926s-0.925-0.415-0.925-0.926S-248.262,32.434-247.751,32.434z
	 M-257.035,33.359c0,0.511-0.415,0.926-0.926,0.926c-0.51,0-0.926-0.415-0.926-0.926s0.416-0.926,0.926-0.926
	C-257.45,32.434-257.035,32.849-257.035,33.359z M-258.335,26.974c-0.562-2.018-1.123-4.036-1.686-6.053c5.013,0,10.026,0,15.04,0
	c-0.567,2.018-1.135,4.035-1.703,6.053C-250.567,26.974-254.45,26.974-258.335,26.974z"/>
<g>
	<path fill="#404040" d="M-174.5,18.438c0,0.414-0.336,0.75-0.75,0.75h-19.5c-0.414,0-0.75-0.336-0.75-0.75v-0.75
		c0-0.414,0.336-0.75,0.75-0.75h19.5c0.414,0,0.75,0.336,0.75,0.75V18.438z"/>
	<path fill="#404040" d="M-174.5,25.375c0,0.415-0.336,0.75-0.75,0.75h-19.5c-0.414,0-0.75-0.335-0.75-0.75v-0.75
		c0-0.414,0.336-0.75,0.75-0.75h19.5c0.414,0,0.75,0.336,0.75,0.75V25.375z"/>
	<path fill="#404040" d="M-174.5,32.313c0,0.414-0.336,0.75-0.75,0.75h-19.5c-0.414,0-0.75-0.336-0.75-0.75v-0.75
		c0-0.414,0.336-0.75,0.75-0.75h19.5c0.414,0,0.75,0.336,0.75,0.75V32.313z"/>
</g>
<g>
	<path fill="#404040" d="M-102.064,8.35h-4.702c-3.682,0-4.371,1.764-4.371,4.308v5.663h8.775l-1.171,8.865h-7.604v22.73h-9.163
		v-22.73h-7.635V18.32h7.635v-6.53c0-7.574,4.642-11.707,11.412-11.707c3.229,0,6.015,0.241,6.824,0.361V8.35z"/>
</g>
<g>
	<path fill="#404040" d="M-25.34,14.917c0.033,0.441,0.033,0.88,0.033,1.318c0,13.414-10.204,28.868-28.861,28.868
		c-5.75,0-11.089-1.665-15.583-4.554c0.816,0.096,1.604,0.124,2.45,0.124c4.741,0,9.105-1.603,12.592-4.331
		c-4.454-0.099-8.194-3.019-9.483-7.039c0.631,0.096,1.256,0.157,1.915,0.157c0.912,0,1.824-0.126,2.669-0.343
		c-4.646-0.946-8.138-5.028-8.138-9.957c0-0.033,0-0.097,0-0.127c1.352,0.755,2.929,1.224,4.59,1.288
		c-2.731-1.822-4.522-4.93-4.522-8.451c0-1.885,0.501-3.611,1.386-5.12c4.989,6.156,12.496,10.178,20.916,10.616
		c-0.158-0.753-0.248-1.537-0.248-2.323c0-5.592,4.522-10.146,10.143-10.146c2.923,0,5.563,1.225,7.411,3.203
		c2.298-0.438,4.494-1.289,6.442-2.449c-0.755,2.357-2.359,4.333-4.46,5.591c2.038-0.219,4.021-0.786,5.84-1.571
		C-21.629,11.683-23.357,13.474-25.34,14.917z"/>
</g>
<g>
	<path fill="#404040" d="M49.836,43.463c0,3.494-2.879,6.373-6.37,6.373H6.534c-3.491,0-6.37-2.879-6.37-6.373V6.537
		c0-3.496,2.879-6.373,6.37-6.373h36.932c3.491,0,6.37,2.877,6.37,6.373V43.463z M44.209,21.185h-4.364
		c0.418,1.323,0.646,2.78,0.646,4.237c0,8.278-6.921,14.973-15.46,14.973c-8.503,0-15.427-6.695-15.427-14.973
		c0-1.458,0.229-2.914,0.649-4.237H5.695v20.957c0,1.096,0.873,1.972,1.972,1.972h34.57c1.096,0,1.972-0.876,1.972-1.972V21.185z
		 M25.031,15.234c-5.497,0-9.957,4.333-9.957,9.668c0,5.338,4.46,9.671,9.957,9.671c5.531,0,9.991-4.333,9.991-9.671
		C35.022,19.568,30.563,15.234,25.031,15.234z M44.209,7.927c0-1.23-1.003-2.233-2.231-2.233H36.35
		c-1.229,0-2.231,1.002-2.231,2.233v5.334c0,1.228,1.003,2.233,2.231,2.233h5.628c1.229,0,2.231-1.006,2.231-2.233V7.927z"/>
</g>
<g>
	<path fill="#404040" d="M107.792,30.067c-0.357,1.397-0.898,3.842-4.294,3.842c-2.623,0-7.451,0-8.076,0
		c-0.327,0-0.362-0.027-0.66,0.303c0,0-0.208,0.235-12.708,14.73c-0.981,1.137-2.591,0.925-3.185,0.682
		c-0.602-0.238-1.645-0.952-1.645-2.92c0-40.316,0-42.048,0-42.048c0-1.728,1.076-4.472,4.713-4.472c0,0,3.666,0,26.484,0
		c3.878,0,4.918,2.207,4.086,6.32C111.401,11.873,108.089,28.842,107.792,30.067z M106.84,7.339
		c0.209-0.952-0.505-1.701-1.313-1.701c0,0-0.804,0-21.237,0c-0.948,0-1.605,0.865-1.605,1.613v32.833
		c0,0.089,0.092,0.122,0.179,0.026c7.814-9.39,8.677-10.493,8.677-10.493c0.892-1.044,1.261-1.222,2.568-1.222
		c6.316,0,7.125,0,7.125,0c0.987,0,1.552-0.836,1.642-1.314c0.089-0.476,0.928-4.829,1.105-5.694
		c0.179-0.864-0.63-1.762-1.438-1.762c0,0-0.827,0-8.767,0c-1.159,0-1.992-0.835-1.992-1.994v-1.256c0-1.16,0.833-1.968,1.992-1.968
		c9.575,0,10.318,0,10.318,0c0.72,0,1.522-0.654,1.642-1.282L106.84,7.339z M107.792,30.067c0.297-1.226,3.609-18.195,4.716-23.563
		L107.792,30.067z"/>
</g>
<path id="google-plus-1" fill-rule="evenodd" clip-rule="evenodd" fill="#404040" d="M154.55,22.909v5.017h8.299
	c-0.335,2.151-2.511,6.31-8.299,6.31c-4.993,0-9.067-4.137-9.067-9.235c0-5.098,4.074-9.238,9.067-9.238
	c2.841,0,4.742,1.213,5.83,2.258l3.973-3.825c-2.55-2.385-5.853-3.824-9.803-3.824c-8.088,0-14.627,6.541-14.627,14.628
	s6.539,14.628,14.627,14.628c8.443,0,14.049-5.935,14.049-14.294c0-0.961-0.109-1.693-0.236-2.424H154.55z M154.55,22.909
	 M190.077,27.09h-6.268v6.27h-4.18v-6.27h-6.271v-4.181h6.271v-6.268h4.18v6.268h6.268V27.09z"/>
<polygon fill="#404040" points="242.065,16.971 232.431,26.605 227.935,22.109 224.723,25.321 232.431,33.029 245.277,20.183 "/>
<polygon fill="#404040" points="313.04,20.175 309.825,16.959 305,21.784 300.175,16.959 296.96,20.175 301.784,25 296.96,29.825 
	300.175,33.04 305,28.216 309.825,33.04 313.04,29.825 308.216,25 "/>
<path fill="#404040" d="M385.343,33.123c-0.37-0.434-0.643-0.782-0.859-1.403c-0.453-1.683,0.076-3.61,0.076-3.61l-0.003,0.001
	c0.347-1.038,0.537-2.148,0.537-3.303c0-5.768-4.676-10.443-10.441-10.443c-5.769,0-10.443,4.64-10.443,10.408
	c0,4.462,2.801,8.219,6.74,9.729h-0.003c0,0,0.025,0.047,0.071,0.061c0.516,0.193,1.051,0.363,1.603,0.472
	c2.134,0.482,6.246,1.035,11.973,0.076C386.016,34.865,386.043,33.943,385.343,33.123z M377.109,21.982
	c0.551,0,0.996,0.447,0.996,0.998c0,0.55-0.445,0.997-0.996,0.997s-0.998-0.447-0.998-0.997
	C376.111,22.429,376.559,21.982,377.109,21.982z M372.831,21.982c0.55,0,0.997,0.447,0.997,0.998c0,0.55-0.447,0.997-0.997,0.997
	c-0.552,0-0.999-0.447-0.999-0.997C371.832,22.429,372.28,21.982,372.831,21.982z M378.415,27.763
	c-0.217,0.294-0.635,0.354-0.926,0.138c-0.7-0.519-1.554-0.828-2.488-0.828s-1.789,0.31-2.491,0.828
	c-0.292,0.217-0.706,0.156-0.925-0.138c-0.217-0.295-0.156-0.709,0.136-0.928c0.914-0.679,2.052-1.087,3.279-1.087
	s2.365,0.409,3.277,1.087C378.571,27.054,378.632,27.468,378.415,27.763z"/>
<g>
	<path fill="#404040" d="M438.041,21.021l1.668,12.791c0,0.5,0.416,0.918,0.957,0.918H445h4.334c0.541,0,0.957-0.418,0.957-0.918
		l1.668-12.791H438.041z"/>
	<path fill="#404040" d="M450.959,16.646c0.75,0,1.375,0.292,1.375,0.667v1.458c0,0.375-0.625,0.292-1.375,0.292h-11.918
		c-0.75,0-1.375,0.083-1.375-0.292v-1.458c0-0.375,0.625-0.667,1.375-0.667l2.75-0.25l1-1.125h4.293l1.041,1.125L450.959,16.646z"/>
</g>
<g>
	<polygon fill="#404040" points="515,27.646 515,27.646 515,27.646 504.844,20.422 504.844,31.5 525.156,31.5 525.156,20.422 	"/>
	<polygon fill="#404040" points="525.054,18.5 504.946,18.5 515,25.629 	"/>
</g>
<g>
	<path fill="#404040" d="M593.065,15.933h-16.131c-0.552,0-1.001,0.446-1.001,1.001v16.13c0,0.553,0.449,1.002,1.001,1.002h8.684
		v-7.021h-2.363v-2.738h2.363v-2.02c0-2.339,1.431-3.616,3.521-3.616c1.001,0,1.859,0.075,2.111,0.109v2.445l-1.451,0.003
		c-1.138,0-1.355,0.538-1.355,1.332v1.747h2.711l-0.354,2.735h-2.356v7.024h4.621c0.552,0,1.001-0.449,1.001-1.002v-16.13
		C594.066,16.379,593.617,15.933,593.065,15.933L593.065,15.933z M593.065,15.933"/>
</g>
<path fill="#404040" d="M658.005,25.009c1.765-1.216,2.514-3.343,1.91-5.504c-0.631-2.259-2.517-3.72-4.803-3.72
	s-4.172,1.461-4.802,3.72c-0.604,2.162,0.145,4.288,1.911,5.505c-3.336,1.574-5.438,5.168-5.259,9.047l0.008,0.158h16.066
	l0.004-0.16C663.172,30.036,661.204,26.522,658.005,25.009z M651.561,20.751c0-1.947,1.584-3.531,3.531-3.531
	c1.946,0,3.531,1.584,3.531,3.531c0,1.946-1.585,3.531-3.531,3.531C653.145,24.282,651.561,22.697,651.561,20.751z M648.572,32.642
	c0.338-3.324,2.5-6.83,6.532-6.83c2.897,0,5.958,2.114,6.334,6.83H648.572z"/>
</svg>
